<?xml version="1.0" standalone="no"?>
<!DOCTYPE svg PUBLIC "-//W3C//DTD SVG 20010904//EN"
 "http://www.w3.org/TR/2001/REC-SVG-20010904/DTD/svg10.dtd">
<svg version="1.0" xmlns="http://www.w3.org/2000/svg"
 width="100.000000pt" height="100.000000pt" viewBox="0 0 100.000000 100.000000"
 preserveAspectRatio="xMidYMid meet">

<g transform="translate(0.000000,100.000000) scale(0.100000,-0.100000)"
fill="#000000" stroke="none">
<path d="M17 922 c-11 -12 -17 -36 -17 -70 l0 -52 500 0 500 0 0 53 c0 92 32
87 -502 87 -438 0 -466 -1 -481 -18z"/>
<path d="M2 413 l3 -348 495 0 495 0 3 348 2 347 -500 0 -500 0 2 -347z m378
114 l63 -68 -69 -70 c-37 -38 -72 -69 -77 -69 -4 0 -10 7 -13 15 -4 9 16 34
53 69 l58 55 -59 59 c-34 36 -55 65 -51 72 12 19 29 8 95 -63z m355 -187 c0
-12 -23 -15 -139 -18 -134 -2 -166 3 -151 27 4 8 52 11 148 9 118 -3 142 -6
142 -18z"/>
</g>
</svg>
