<?xml version="1.0" standalone="no"?>
<!DOCTYPE svg PUBLIC "-//W3C//DTD SVG 20010904//EN"
 "http://www.w3.org/TR/2001/REC-SVG-20010904/DTD/svg10.dtd">
<svg version="1.0" xmlns="http://www.w3.org/2000/svg"
 width="30.000000pt" height="30.000000pt" viewBox="0 0 30.000000 30.000000"
 preserveAspectRatio="xMidYMid meet">

<g transform="translate(0.000000,30.000000) scale(0.100000,-0.100000)"
fill="#000000" stroke="none">
<path d="M32 268 c-16 -16 -16 -220 0 -236 16 -16 220 -16 236 0 16 16 16 220
0 236 -16 16 -220 16 -236 0z m228 -118 l0 -110 -110 0 -110 0 0 110 0 110
110 0 110 0 0 -110z"/>
<path d="M151 168 c-23 -55 -36 -99 -22 -78 15 24 51 120 45 120 -2 0 -13 -19
-23 -42z"/>
<path d="M83 168 c-30 -14 -29 -22 4 -37 23 -11 25 -10 13 3 -10 13 -10 19 0
31 14 17 13 18 -17 3z"/>
<path d="M200 166 c10 -13 10 -19 0 -32 -12 -13 -10 -14 13 -3 15 7 27 15 27
19 0 4 -12 12 -27 19 -23 11 -25 10 -13 -3z"/>
</g>
</svg>
