<?xml version="1.0" standalone="no"?>
<!DOCTYPE svg PUBLIC "-//W3C//DTD SVG 20010904//EN"
 "http://www.w3.org/TR/2001/REC-SVG-20010904/DTD/svg10.dtd">
<svg version="1.0" xmlns="http://www.w3.org/2000/svg"
 width="48.000000pt" height="48.000000pt" viewBox="0 0 48.000000 48.000000"
 preserveAspectRatio="xMidYMid meet">

<g transform="translate(0.000000,48.000000) scale(0.100000,-0.100000)"
fill="#000000" stroke="none">
<path d="M80 215 l0 -135 160 0 160 0 0 135 0 135 -160 0 -160 0 0 -135z m130
0 c0 -6 -13 -19 -30 -28 -25 -15 -30 -16 -30 -4 0 8 8 18 18 22 16 6 16 7 0
19 -31 23 -21 39 12 19 17 -9 30 -22 30 -28z m120 -35 c0 -5 -22 -10 -50 -10
-27 0 -50 5 -50 10 0 6 23 10 50 10 28 0 50 -4 50 -10z"/>
</g>
</svg>
