<?xml version="1.0" standalone="no"?>
<!DOCTYPE svg PUBLIC "-//W3C//DTD SVG 20010904//EN"
 "http://www.w3.org/TR/2001/REC-SVG-20010904/DTD/svg10.dtd">
<svg version="1.0" xmlns="http://www.w3.org/2000/svg"
 width="50.000000pt" height="50.000000pt" viewBox="0 0 50.000000 50.000000"
 preserveAspectRatio="xMidYMid meet">

<g transform="translate(0.000000,50.000000) scale(0.100000,-0.100000)"
fill="#000000" stroke="none">
<path d="M0 250 l0 -250 250 0 250 0 0 250 0 250 -250 0 -250 0 0 -250z m455
0 l0 -205 -205 0 -205 0 -3 195 c-1 107 0 200 3 207 3 11 48 13 207 11 l203
-3 0 -205z"/>
<path d="M60 250 l0 -190 190 0 190 0 0 190 0 190 -190 0 -190 0 0 -190z m240
103 c0 -19 -83 -213 -91 -213 -5 0 -9 3 -9 8 0 18 83 212 91 212 5 0 9 -3 9
-7z m-110 -63 c0 -6 -11 -16 -25 -22 -14 -6 -25 -14 -25 -18 0 -4 11 -12 25
-18 22 -10 35 -32 19 -32 -11 0 -84 43 -84 50 0 7 71 49 83 50 4 0 7 -5 7 -10z
m170 -10 c22 -11 40 -25 40 -30 0 -8 -70 -50 -85 -50 -14 0 -2 18 20 30 14 7
25 16 25 20 0 4 -11 13 -25 20 -14 7 -25 17 -25 22 0 12 6 10 50 -12z"/>
</g>
</svg>
