<?xml version="1.0" standalone="no"?>
<!DOCTYPE svg PUBLIC "-//W3C//DTD SVG 20010904//EN"
 "http://www.w3.org/TR/2001/REC-SVG-20010904/DTD/svg10.dtd">
<svg version="1.0" xmlns="http://www.w3.org/2000/svg"
 width="50.000000pt" height="50.000000pt" viewBox="0 0 50.000000 50.000000"
 preserveAspectRatio="xMidYMid meet">

<g transform="translate(0.000000,50.000000) scale(0.100000,-0.100000)"
fill="#000000" stroke="none">
<path d="M0 483 c0 -17 19 -18 250 -18 231 0 250 1 250 18 0 16 -19 17 -250
17 -231 0 -250 -1 -250 -17z"/>
<path d="M0 390 c0 -6 90 -10 250 -10 160 0 250 4 250 10 0 6 -90 10 -250 10
-160 0 -250 -4 -250 -10z"/>
<path d="M140 293 c0 -4 12 -20 27 -35 l27 -28 -29 -30 c-42 -44 -21 -51 22
-7 l37 37 -34 35 c-32 33 -50 43 -50 28z"/>
<path d="M220 170 c0 -6 32 -10 75 -10 43 0 75 4 75 10 0 6 -32 10 -75 10 -43
0 -75 -4 -75 -10z"/>
<path d="M0 15 c0 -13 34 -15 250 -15 216 0 250 2 250 15 0 13 -34 15 -250 15
-216 0 -250 -2 -250 -15z"/>
</g>
</svg>
